<?xml version="1.0" encoding="utf-8"?>
<svg xmlns="http://www.w3.org/2000/svg" width="120" height="40" viewBox="0 0 120 40" fill="none">
<path d="M34 7.72414C34 7.72414 28.7903 0 17 0C7.26613 0 0 5.37931 0 8.68965C0 12.4138 7.26613 14.3448 7.26613 20H19.879C19.879 16.6897 8.91129 14.8966 8.91129 7.72414C8.91129 1.10345 25.9113 1.65517 34 7.72414Z" fill="black"/>
<path d="M34 32.2759C34 32.2759 28.7903 40 17 40C7.26613 40 0 34.6207 0 31.3103C0 27.5862 7.26613 25.5172 7.26613 20H19.879C19.879 23.3103 8.91129 25.1035 8.91129 32.2759C8.91129 38.8966 25.9113 38.3448 34 32.2759Z" fill="black"/>
<path d="M0.137096 7.58618C-7.86517e-07 7.99997 0 8.41377 0 8.68963C0 12.4138 7.26613 14.3448 7.26613 20C7.26613 25.6551 0 27.7241 0 31.3103C0 31.5862 -7.86517e-07 32 0.137096 32.2758C-0.822581 28.6896 11.9274 25.6551 17.8226 22.4827C19.0565 21.6551 19.879 20.8276 19.879 19.862C19.879 18.8965 19.0565 18.0689 17.8226 17.2414C11.9274 14.2069 -0.822581 11.1724 0.137096 7.58618Z" fill="black"/>
<path d="M33.5133 21.8H35.1416C34.9381 22.6 34.531 23.2 33.7168 23.6C33.1062 24 32.292 24.4 31.0708 24.4C29.8496 24.4 28.8319 24 28.2212 23.2C27.4071 22.6 27 21.6 27 20.2C27 19 27.4071 18 28.2212 17.2C28.8319 16.6 29.8496 16.2 31.0708 16.2C32.4956 16.2 33.5133 16.6 34.3274 17.2C34.9381 18 35.3451 19 35.3451 20.2V20.8H29.4425C29.4425 21.4 29.646 21.8 30.0531 22.2C30.2566 22.4 30.6637 22.6 31.2743 22.6C31.6814 22.6 31.885 22.6 32.292 22.4H32.4956C32.4956 22.2 32.4956 22.2 32.6991 22.2C32.6991 22 32.6991 22 32.9027 22C33.1062 21.8 33.3097 21.8 33.5133 21.8ZM29.4425 19.4H32.9027C32.9027 19 32.6991 18.6 32.4956 18.4C32.0885 18 31.6814 18 31.2743 18C30.6637 18 30.2566 18 30.0531 18.4C29.646 18.6 29.4425 19 29.4425 19.4ZM45.3186 24.2H44.0973C43.8938 24.2 43.4867 24 43.2832 23.8C43.0796 23.8 43.0796 23.4 43.0796 23.2V19.2C43.0796 18.8 42.8761 18.4 42.469 18.2C42.2655 18 41.8584 17.8 41.4513 17.8C41.0442 17.8 40.6372 18 40.4336 18.2C40.0265 18.4 40.0265 18.8 40.0265 19.2V24.2H37.5841V19.6C37.5841 18.2 37.9911 17.4 38.8053 17C39.6195 16.4 40.4336 16.2 41.4513 16.2C42.469 16.2 43.2832 16.4 44.0973 16.8C44.9115 17.4 45.3186 18.2 45.3186 19.6V24.2ZM53.4602 14H54.6814C55.0885 14 55.292 14.2 55.4956 14.4C55.6991 14.6 55.9027 14.8 55.9027 15V20.8C55.9027 22.2 55.292 23.2 54.4779 23.6C53.4602 24 52.646 24.4 51.4248 24.4C50.8142 24.4 50.4071 24.2 49.7965 24C49.1858 24 48.7788 23.6 48.3717 23.2C47.7611 22.6 47.5575 21.6 47.5575 20.4C47.5575 19 47.7611 18 48.3717 17.4C49.1858 16.6 50 16.2 51.0177 16.2C51.6283 16.2 52.0354 16.4 52.4425 16.6C52.8496 16.8 53.2566 17 53.4602 17.4V14ZM49.7965 20.2C49.7965 21 50 21.6 50.2035 22C50.6106 22.4 51.0177 22.6 51.6283 22.6C52.2389 22.6 52.8496 22.4 53.0531 22C53.4602 21.6 53.4602 21 53.4602 20.2C53.4602 19.6 53.4602 19 53.0531 18.6C52.646 18.2 52.2389 18 51.6283 18C51.0177 18 50.6106 18.2 50.2035 18.6C50 19 49.7965 19.6 49.7965 20.2ZM59.3628 23.4C58.7522 23.2 58.5487 22.6 58.3451 22C58.1416 21.4 57.9381 20.8 57.9381 20.2C57.9381 19.6 58.1416 19.2 58.1416 18.6C58.3451 18 58.5487 17.6 58.9558 17.2C59.5664 16.8 60.3805 16.4 61.1947 16.2C62.2124 16.2 63.0265 16.2 63.6372 16.4C64.6549 16.8 65.2655 17.2 65.6726 18C66.0796 18.6 66.0796 19.4 66.0796 20.2C66.0796 20.8 66.0796 21.4 65.8761 21.8C65.8761 22.2 65.6726 22.6 65.2655 23C64.8584 23.6 64.0442 24 63.2301 24.2C62.6195 24.4 61.8053 24.4 60.9911 24.2C60.3805 24 59.7699 23.8 59.3628 23.4ZM60.7876 18.4C60.3805 18.8 60.177 19.4 60.177 20.4C60.3805 21.2 60.3805 21.8 60.7876 22.2C60.9911 22.4 61.1947 22.4 61.6018 22.6H62.6195C62.823 22.6 63.2301 22.4 63.4336 22C63.6372 21.6 63.8407 21 63.8407 20.2C63.8407 19.6 63.8407 19 63.4336 18.6C63.2301 18.4 63.0265 18 62.6195 18C62.2124 17.8 62.0089 17.8 61.6018 18C61.1947 18 60.9911 18.2 60.7876 18.4ZM68.5221 24.2V20.4C68.5221 19.6 68.5221 19 68.9292 18.4C69.1327 18 69.5398 17.6 69.9469 17.2C70.354 17 70.7611 16.8 71.3717 16.6C71.9823 16.4 72.5929 16.4 73.2035 16.4H73.4071V18.4H72.7965C71.9823 18.4 71.5752 18.6 71.3717 18.8C70.9646 19.2 70.7611 19.6 70.7611 20.2V24.2H68.5221ZM77.885 26C77.885 26.4 77.885 26.6 77.6814 26.8C77.2743 27 77.0708 27 76.8673 27H75.646V19.8C75.646 18.4 76.0531 17.4 77.0708 17C77.885 16.4 78.9027 16.2 79.9204 16.2C80.531 16.2 81.1416 16.4 81.7522 16.4C82.3628 16.6 82.7699 17 82.9734 17.2C83.7876 18 83.9911 19 83.9911 20.2C83.9911 21.4 83.7876 22.4 82.9734 23.2C82.3628 24 81.5487 24.4 80.531 24.4C79.9204 24.4 79.5133 24.2 78.9027 24C78.4956 23.8 78.292 23.6 77.885 23.2V26ZM81.7522 20.4C81.7522 19.6 81.5487 19 81.3451 18.6C80.9381 18.2 80.531 18 79.7168 18C79.1062 18 78.6991 18.2 78.4956 18.6C78.0885 19 77.885 19.6 77.885 20.4C77.885 21 78.0885 21.6 78.4956 22C78.6991 22.4 79.3097 22.6 79.9204 22.6C80.531 22.6 80.9381 22.4 81.3451 22C81.5487 21.6 81.7522 21 81.7522 20.4ZM91.9292 18.6C91.7257 18.2 91.115 18 90.708 18C89.8938 18 89.4867 18.2 89.0796 18.6C88.8761 19 88.6726 19.4 88.6726 20.2V24.2H86.4336V14.2H87.4513C87.8584 14.2 88.0619 14.2 88.2655 14.4C88.469 14.6 88.6726 14.8 88.6726 15V17.4C89.0796 16.8 89.6903 16.4 90.3009 16.4C91.115 16.2 91.7257 16.2 92.5398 16.4C93.1504 16.6 93.5575 17 93.9646 17.6C94.5752 18 94.7788 18.8 94.7788 19.6V24.2H92.5398V20.2C92.5398 19.8 92.3363 19.6 92.3363 19.4C92.3363 19 92.1327 18.8 91.9292 18.6ZM97.2212 16.4H98.4425C98.646 16.4 99.0531 16.4 99.2566 16.6C99.4602 16.8 99.6637 17.2 99.6637 17.4V24.2H97.2212V16.4ZM97.2212 14.2H98.4425C98.646 14.2 99.0531 14.2 99.2566 14.4C99.4602 14.6 99.6637 14.8 99.6637 15V15.8H97.2212V14.2ZM109.434 24.2H108.212C107.805 24.2 107.602 24 107.398 23.8C107.195 23.8 106.991 23.4 106.991 23.2V19.2C106.991 18.8 106.991 18.4 106.584 18.2C106.177 18 105.973 17.8 105.566 17.8C105.159 17.8 104.752 18 104.345 18.2C104.142 18.4 103.938 18.8 103.938 19.2V24.2H101.699V19.6C101.699 18.2 101.903 17.4 102.717 17C103.531 16.4 104.549 16.2 105.363 16.2C106.381 16.2 107.398 16.4 108.212 16.8C109.027 17.4 109.434 18.2 109.434 19.6V24.2ZM116.761 20.2C116.558 20.4 116.15 20.6 115.54 20.6C114.929 20.8 114.726 20.8 114.726 20.8C114.319 20.8 114.115 21 113.911 21.2C113.708 21.4 113.708 21.6 113.708 21.8C113.708 22 113.708 22.4 113.911 22.6C114.115 22.6 114.522 22.8 114.726 22.8C115.54 22.8 115.947 22.6 116.354 22.2C116.558 22 116.761 21.6 116.761 21V20.2ZM117.372 23.8C116.965 24 116.354 24.2 115.947 24.2C115.336 24.2 114.929 24.4 114.522 24.4C113.708 24.4 112.894 24.2 112.283 23.8C111.673 23.4 111.469 22.8 111.469 21.8C111.469 21 111.673 20.4 112.283 20.2C112.894 19.8 113.504 19.6 114.319 19.4H114.726C114.929 19.4 115.133 19.4 115.336 19.2C116.354 19.2 116.761 19 116.761 18.6C116.761 18.2 116.558 18 116.354 18C115.947 17.8 115.54 17.8 115.336 17.8C114.929 17.8 114.726 17.8 114.522 18C114.319 18 114.115 18.2 113.911 18.4H111.673C111.876 17.8 112.08 17.2 112.69 16.8C113.301 16.4 114.115 16.2 115.133 16.2C116.558 16.2 117.372 16.4 117.982 16.8C118.593 17.2 119 17.8 119 18.4V21C119 21.8 118.796 22.4 118.593 23C118.186 23.4 117.779 23.6 117.372 23.8Z" fill="black"/>
</svg>