<?xml version="1.0" encoding="utf-8"?>
<svg xmlns="http://www.w3.org/2000/svg" width="24" height="24" viewBox="0 0 24 24" fill="none">
<path d="M11.99 0C5.35585 0 0 5.37204 0 12.0224C0 13.2036 0.17799 14.3848 0.533968 15.5012C0.760499 15.1938 0.970849 14.8864 1.16502 14.5466C2.00642 13.3168 2.81546 12.0871 3.6245 10.825L4.22319 9.8703C4.41736 9.56287 4.61153 9.23925 4.78952 8.91564C5.17786 8.28458 5.5662 7.63735 5.906 7.0063C6.08399 6.68268 6.26198 6.37525 6.45615 6.03545C6.65032 5.71183 6.81213 5.4044 6.99012 5.0646C7.1681 4.7248 7.34609 4.40119 7.49172 4.09375L7.97715 3.10672L8.02569 3.042C8.28458 2.50803 8.93181 2.29768 9.48196 2.54039C9.8703 2.76692 10.113 3.17144 10.0968 3.64069C10.0968 4.20701 9.98357 4.80571 9.93503 5.37204C9.88648 5.93836 9.8703 6.53705 9.82176 7.13575C9.77322 8.30076 9.75704 9.49814 9.75704 10.6632C9.75704 11.8282 9.82176 12.9932 9.93503 14.1259C9.99975 14.676 10.0968 15.2262 10.1939 15.7763C10.2748 16.2617 10.4366 16.7472 10.6632 17.184C10.7279 17.3135 10.825 17.4429 10.9221 17.5562C10.9868 17.6047 10.9382 17.5724 10.9868 17.5724C11.0353 17.5724 11.003 17.5724 11.0353 17.5724L11.0839 17.5562H11.1L11.1648 17.54C11.1809 17.5238 11.2295 17.4915 11.2457 17.4753C11.4237 17.3458 11.5693 17.184 11.7311 17.006C12.0871 16.5853 12.4107 16.1646 12.7019 15.7116C13.0094 15.2423 13.3006 14.7407 13.5757 14.2391C14.142 13.2197 14.676 12.1842 15.1776 11.1324C15.4203 10.5984 15.6792 10.0807 15.9219 9.53051C16.1646 8.99654 16.4074 8.44639 16.6339 7.9286C16.8604 7.37846 17.4915 7.11956 18.0416 7.32991C18.3976 7.45936 18.6403 7.7668 18.705 8.13896C18.705 8.2684 18.7212 8.44639 18.7536 8.62438L18.8183 9.12598C18.8668 9.4496 18.8992 9.7894 18.9801 10.113C19.0934 10.7764 19.2228 11.4398 19.4008 12.0709C19.5788 12.7019 19.7891 13.3492 20.0642 13.9641C20.3231 14.5789 20.6629 15.1453 21.0836 15.6792C21.1645 15.8087 21.1483 15.9867 21.0351 16.0676C20.9218 16.1485 20.7762 16.1485 20.6791 16.0676C20.1289 15.5821 19.6435 15.032 19.2228 14.4333C18.8021 13.8346 18.4461 13.2036 18.1225 12.5563C17.896 12.1194 17.7342 11.6826 17.5238 11.2295C17.3944 11.4884 17.2811 11.7635 17.1517 12.0062C16.6177 13.0903 16.0999 14.1582 15.485 15.2423C15.1776 15.8087 14.8702 16.3426 14.5142 16.8766C14.1582 17.4268 13.7699 17.9607 13.3492 18.4461C13.1065 18.7374 12.8152 18.9801 12.5401 19.2228C12.4592 19.2875 12.3621 19.3523 12.2489 19.4008L12.0547 19.5141L11.9414 19.5626H11.9253L11.8605 19.5788H11.812L11.7311 19.595C11.6664 19.6112 11.6178 19.6435 11.5531 19.6435C11.4237 19.6597 11.2942 19.6921 11.1648 19.7082C10.8735 19.7244 10.5661 19.6921 10.3072 19.595C10.0483 19.4979 9.80558 19.3523 9.57905 19.1743C9.25543 18.883 8.96418 18.5432 8.77001 18.1387C8.46257 17.5238 8.23604 16.8604 8.10659 16.1808C7.97715 15.566 7.88006 14.9187 7.81534 14.3038C7.68589 13.0741 7.63735 11.8605 7.62117 10.6308C7.62117 10.0645 7.62117 9.46578 7.62117 8.89945C7.39464 9.32016 7.18429 9.74086 6.95775 10.1292C6.77977 10.4528 6.60178 10.7926 6.40761 11.1162L5.85746 12.1033C5.11314 13.4301 4.33646 14.7246 3.52742 16.019C3.02581 16.8604 2.49185 17.6856 1.95788 18.5109C5.58238 24.0609 13.0256 25.5981 18.5756 21.9736C24.1256 18.3491 25.6628 10.9059 22.0383 5.35585C19.8053 2.03878 16.0514 0 11.99 0Z" fill="url(#paint0_linear)"/>
<defs>
<linearGradient id="paint0_linear" x1="34" y1="-13.5" x2="12.5866" y2="39.4346" gradientUnits="userSpaceOnUse">
<stop stop-color="#30B8DE"/>
<stop offset="1" stop-color="#23DD3C"/>
</linearGradient>
</defs>
</svg>