<?xml version="1.0" encoding="utf-8"?>
<svg xmlns="http://www.w3.org/2000/svg" width="120" height="22" viewBox="0 0 120 22" fill="none">
<path fill-rule="evenodd" clip-rule="evenodd" d="M116.699 12.0375L120.042 17.3691L116.232 17.3724L113.08 12.3662H113.045V17.3724H109.611V4.39085H114.738C115.93 4.32172 117.109 4.66226 118.075 5.35415C118.507 5.72389 118.846 6.18768 119.065 6.70891C119.283 7.23014 119.376 7.79437 119.335 8.35693C119.356 9.2227 119.088 10.0715 118.573 10.7729C118.372 11.1046 118.1 11.3892 117.777 11.6076C117.454 11.8259 117.086 11.9727 116.699 12.0375ZM115.56 7.73944C115.43 7.52559 115.241 7.35189 115.016 7.23842C114.78 7.12075 114.525 7.04229 114.263 7.00576C113.97 6.96429 113.674 6.94396 113.378 6.94545H113.046V10.1908H113.378C113.674 10.1925 113.97 10.1724 114.263 10.1308C114.525 10.0943 114.78 10.0158 115.016 9.89815C115.242 9.78529 115.431 9.61145 115.56 9.39713C115.692 9.14002 115.76 8.85619 115.76 8.56829C115.76 8.28039 115.692 7.99656 115.56 7.73944ZM99.978 4.3914H107.491V7.26581H103.425V9.35591H107.491V12.3175H103.425V14.4076H107.491V17.3691H99.978V4.3914ZM50.3036 7.26581H46.2375V9.35591H50.3036V12.3175H46.2375V14.4076H50.3036V17.3691H42.7903V4.3914H50.3036V7.26581ZM37.566 17.3724L34.414 12.3662H34.3797V17.3724H30.9456V4.39085H36.0727C37.2646 4.32196 38.4437 4.66248 39.4093 5.35415C39.8417 5.72392 40.1807 6.18769 40.3995 6.70891C40.6183 7.23014 40.7108 7.79437 40.6697 8.35693C40.6908 9.22267 40.4232 10.0714 39.9076 10.7729C39.6546 11.1108 39.3364 11.3959 38.9711 11.6123C38.6058 11.8286 38.2005 11.9717 37.7789 12.0333L41.3767 17.365L37.566 17.3724ZM36.8935 7.74055C36.7634 7.52662 36.5749 7.3529 36.3494 7.23953C36.1132 7.12174 35.859 7.04327 35.5968 7.00687C35.3036 6.96541 35.0077 6.94536 34.7114 6.94683H34.3797V10.192H34.7114C35.0077 10.1936 35.3036 10.1735 35.5968 10.1319C35.859 10.0955 36.1132 10.017 36.3494 9.89926C36.5755 9.78671 36.7642 9.61279 36.8935 9.39824C37.0254 9.14123 37.0941 8.85736 37.0941 8.56939C37.0941 8.28143 37.0254 7.99756 36.8935 7.74055ZM59.319 4.88329C60.07 5.20856 60.7466 5.67963 61.3084 6.26848C61.8846 6.87235 62.3379 7.57974 62.6432 8.35195C63.2809 9.98106 63.2782 11.7857 62.6356 13.413C62.3262 14.1825 61.8699 14.8866 61.2912 15.4868C60.7274 16.0733 60.0513 16.544 59.3019 16.872C58.5539 17.2034 57.7425 17.374 56.9223 17.3719H52.4242V4.39196H56.9223C57.7472 4.38804 58.5637 4.55497 59.319 4.88163V4.88329ZM55.597 7.25032V14.5141H56.3085C56.7704 14.5178 57.2299 14.4452 57.6676 14.2997C58.0981 14.1567 58.4902 13.9201 58.8151 13.6072C59.1399 13.2943 59.3888 12.9131 59.5434 12.4923C59.7362 11.9773 59.8297 11.4315 59.819 10.8828C59.8477 10.398 59.778 9.91246 59.6142 9.4544C59.4505 8.99635 59.1958 8.57491 58.8651 8.21473C58.5346 7.89081 58.1394 7.63799 57.7046 7.47219C57.2698 7.3064 56.805 7.23114 56.3392 7.25143L55.597 7.25032ZM77.4391 7.25032H74.6016V17.3719H71.1707V7.25032H68.3327V4.39251H77.4391V7.25032ZM82.9664 17.3747H79.5321V4.35516H82.9664V17.3747ZM86.8814 6.18466C87.4797 5.59774 88.1986 5.14369 88.9899 4.85314C89.8494 4.53973 90.7599 4.3838 91.6764 4.39306C92.8447 4.36455 93.9975 4.66122 95.0024 5.24875C95.9791 5.85929 96.7434 6.74874 97.1934 7.79837L94.1757 9.05658C93.9787 8.49699 93.6235 8.00448 93.152 7.6368C92.6866 7.28844 92.1148 7.10634 91.5304 7.12057C91.0609 7.11353 90.5975 7.22468 90.1837 7.44315C89.7842 7.65679 89.4398 7.95765 89.177 8.3229C88.9033 8.7008 88.6948 9.12055 88.5601 9.56534C88.28 10.4758 88.28 11.4477 88.5601 12.3581C88.6951 12.8018 88.9064 13.2196 89.1848 13.5928C89.4546 13.9536 89.8046 14.2489 90.2079 14.4563C90.6315 14.6704 91.1021 14.7782 91.5781 14.7705C92.2143 14.7951 92.8393 14.6014 93.3464 14.2222C93.5823 14.03 93.775 13.7914 93.9119 13.5217C94.0488 13.2521 94.1271 12.9572 94.1417 12.6561H91.5464V10.1712H97.8569C97.8519 11.0703 97.7626 11.9671 97.5901 12.85C97.4164 13.62 97.0818 14.3458 96.6075 14.9813C96.0577 15.7599 95.3079 16.381 94.4349 16.781C93.5327 17.1812 92.5527 17.3823 91.5632 17.3702C90.6656 17.3796 89.7739 17.2235 88.9345 16.9102C88.1572 16.6179 87.4501 16.1698 86.8578 15.5944C86.2671 15.0161 85.808 14.3208 85.5106 13.5547C85.1892 12.7226 85.0294 11.8387 85.0398 10.9486C85.0283 10.0339 85.1905 9.12523 85.5179 8.26923C85.8196 7.48779 86.2841 6.77711 86.8814 6.183V6.18466Z" fill="black"/>
<path fill-rule="evenodd" clip-rule="evenodd" d="M16.6933 7.22766C16.6812 7.58121 16.7101 7.97668 16.1497 8.15742C15.8178 8.2645 15.4101 7.81747 15.3882 7.50585C15.5541 7.28803 15.7809 7.12279 16.041 7.0305C16.5622 6.83673 16.6858 6.79989 16.6933 7.22766ZM7.0675 8.15742C6.50716 7.97611 6.53603 7.58121 6.52395 7.22766C6.53143 6.79989 6.65442 6.83673 7.17621 7.03107C7.43616 7.12334 7.66312 7.2886 7.82875 7.50642C7.80632 7.81974 7.39888 8.26507 7.06694 8.15799L7.0675 8.15742ZM19.7602 18.4981C20.1031 18.3377 20.4147 18.119 20.6807 17.8522C21.9884 16.4771 22.2428 14.893 22.3993 13.0595C22.4401 12.5819 22.4313 12.1003 22.4566 11.6102C22.4601 11.5348 22.4724 11.1949 22.5074 11.1954C22.61 11.3066 22.6915 11.435 22.7479 11.5745C22.9082 12.0016 23.0101 12.4478 23.051 12.9014C23.2007 13.7932 23.2265 14.7008 23.128 15.5995C23.0833 15.9123 22.9778 16.2138 22.8173 16.4873C21.9998 17.8358 21.0962 19.0862 20.2327 20.4132C20.1613 20.5225 20.1088 20.3123 20.0599 20.2766L19.9911 20.2081C19.7949 20.1038 19.7189 20.0913 19.6245 20.1548C19.594 20.2115 19.567 20.2681 19.5383 20.3248C19.3364 20.7656 18.9715 21.4698 18.7172 21.9248C18.7009 21.9529 18.6759 21.9749 18.6456 21.9874C18.6153 22 18.5815 22.0023 18.5498 21.994C18.518 21.9857 18.4898 21.9673 18.4697 21.9417C18.4497 21.9161 18.4389 21.8846 18.4388 21.8523C18.4388 21.3463 18.4424 20.8404 18.4354 20.3344C18.4314 20.0188 18.4388 19.6335 17.9947 19.6341C17.5615 19.6341 17.5482 20.0069 17.543 20.3304C17.5384 20.6256 17.543 20.9214 17.543 21.2613C17.5433 21.2879 17.5366 21.3141 17.5231 21.3371C17.5096 21.3601 17.4899 21.3791 17.4663 21.3921C17.4428 21.4051 17.4161 21.4116 17.3891 21.4109C17.3621 21.4102 17.3358 21.4024 17.313 21.3883C16.9484 21.1179 16.5458 20.9011 16.118 20.7446C15.7773 20.6103 15.4085 20.5607 15.0438 20.6002C14.6791 20.6398 14.3298 20.7672 14.0269 20.9712L14.1202 20.8879C14.3781 20.6572 14.6883 20.4905 15.025 20.4018C15.3616 20.3131 15.7148 20.305 16.0553 20.378C16.2442 20.4184 16.4377 20.4337 16.6306 20.4234C16.6539 20.4221 16.6767 20.4155 16.6969 20.4041C16.7171 20.3927 16.7342 20.3767 16.7469 20.3575C16.7597 20.3383 16.7677 20.3164 16.7702 20.2936C16.7728 20.2708 16.77 20.2477 16.7618 20.2262C16.4937 19.5242 15.6563 16.9513 17.3781 16.0777C17.4005 16.067 17.4197 16.0511 17.4343 16.0313C17.4489 16.0116 17.4586 15.9886 17.4621 15.9644C17.5225 15.4918 18.3968 13.4493 16.0202 12.1167C15.6474 12.443 15.1879 13.2051 14.6017 13.6929C15.6372 13.9122 16.1838 13.2963 16.6848 12.872C16.4795 14.0618 15.5389 14.1468 14.7893 14.5791C15.4348 14.306 16.0773 14.6765 16.8441 14.2776C16.2895 15.3235 15.1914 14.8074 14.5165 15.3592C15.1637 15.7711 15.7614 15.5462 16.3545 15.4828C16.5221 15.4604 16.6924 15.4667 16.8579 15.5015C16.7182 15.7007 16.5563 15.8839 16.3753 16.0476C16.1457 16.2184 15.8855 16.3453 15.6084 16.4216C15.3262 16.5094 15.0245 16.5174 14.7379 16.4448C13.8899 16.1836 13.0575 15.8726 12.2303 15.5519C12.1508 15.5145 12.0804 15.4607 12.0238 15.3943C11.9672 15.3278 11.926 15.2502 11.9024 15.1666C11.8507 14.9014 11.9126 14.6176 11.8867 14.3445C11.855 14.1778 11.8919 14.0056 11.989 13.8655C12.086 13.7254 12.2356 13.6289 12.4047 13.5972C13.1836 13.3843 13.8675 12.9203 14.3469 12.2793C14.5073 12.0502 14.6225 11.7934 14.6868 11.5223C14.6865 11.5173 14.6865 11.5122 14.6868 11.5071C14.6884 11.2571 14.6441 11.0089 14.5561 10.7745C14.5068 10.588 14.5117 10.3917 14.5705 10.2079L14.5851 10.1473C14.5851 10.1444 14.5851 10.1416 14.5851 10.1388H14.5885L14.757 9.42543C14.8128 9.20452 14.9475 9.0107 15.1362 8.87925L15.1873 8.84865C15.2075 8.83276 15.2289 8.81873 15.2517 8.80672C15.5684 8.64366 15.9 8.50995 16.2419 8.40729C16.8368 8.17621 17.3714 7.81644 17.8062 7.35454C18.2411 6.89264 18.5649 6.34043 18.754 5.73869C18.8988 5.33362 18.9344 4.89842 18.8571 4.47578C18.742 4.70637 18.5641 5.16871 18.4543 5.40157C18.3885 5.58256 18.2629 5.73647 18.0975 5.83853C17.9321 5.94058 17.7365 5.98484 17.5424 5.96418C16.4408 5.97211 15.3796 6.15512 14.7767 7.28602C14.5207 7.89166 14.055 8.38846 13.4626 8.68831C13.4525 8.35999 13.5032 8.0326 13.6126 7.72228C13.1006 7.51491 13.3025 7.22143 13.5758 6.92907C13.948 6.53246 14.3239 6.14039 14.7185 5.72622C14.3856 5.64451 14.0805 5.47758 13.8342 5.24236H15.9882C15.9882 5.22083 15.9915 5.19986 15.9938 5.17833C15.3351 5.06033 14.7005 4.83657 14.1154 4.51599C15.1158 3.90805 17.1957 4.21005 17.5467 4.09956C17.5507 4.01741 17.259 3.95622 16.9604 3.86047C16.2701 3.68483 16.0105 3.62986 15.3219 3.44629C14.6381 3.26346 13.979 3.00038 13.3589 2.66271H16.1871C15.2251 2.12414 14.1649 1.77759 13.0668 1.64287C12.446 1.60377 11.9985 1.60491 11.6159 1.61114L11.6131 1.43266V1.61114C11.23 1.60491 10.783 1.60377 10.1622 1.64287C9.06398 1.77759 8.00329 2.12414 7.0411 2.66271H9.86925C9.24901 3.00046 8.58974 3.26354 7.90572 3.44629C7.21537 3.62929 6.95782 3.68426 6.26804 3.86047C5.96889 3.95622 5.67777 4.01741 5.6818 4.09956C6.03273 4.21288 8.11234 3.90862 9.11277 4.51599C8.52791 4.83656 7.89345 5.06033 7.23492 5.17833C7.23492 5.19986 7.23852 5.22083 7.24082 5.24236H9.39452C9.14847 5.47761 8.84381 5.64454 8.51107 5.72622C8.90515 6.14039 9.28187 6.53246 9.65351 6.92907C9.92678 7.22029 10.1287 7.51378 9.61671 7.72228C9.72638 8.03253 9.77758 8.35995 9.76756 8.68831C9.17488 8.38856 8.70907 7.89176 8.45292 7.28602C7.85059 6.15285 6.78854 5.97154 5.68685 5.96418C5.4928 5.98484 5.29747 5.94058 5.13207 5.83853C4.96666 5.73647 4.84082 5.58256 4.77503 5.40157C4.66573 5.16871 4.48728 4.70694 4.37222 4.47578C4.29477 4.89846 4.33056 5.33372 4.47587 5.73869C4.66478 6.3405 4.98878 6.8928 5.42364 7.35471C5.85851 7.81663 6.39322 8.17636 6.98829 8.40729C7.32996 8.51 7.66105 8.64371 7.97763 8.80672C8.00037 8.81873 8.02211 8.83276 8.04224 8.84865C8.05892 8.85828 8.07611 8.86792 8.09337 8.87925C8.2821 9.0107 8.41674 9.20452 8.47259 9.42543L8.64113 10.1388H8.64394C8.64422 10.1416 8.64422 10.1444 8.64394 10.1473L8.65827 10.2079C8.71666 10.3917 8.72141 10.5881 8.67203 10.7745C8.58422 11.009 8.53995 11.2571 8.54141 11.5071C8.54225 11.5121 8.54225 11.5173 8.54141 11.5223C8.60583 11.7934 8.72152 12.0502 8.88215 12.2793C9.36119 12.9204 10.0449 13.3845 10.8238 13.5972C10.9929 13.6289 11.1422 13.7254 11.2392 13.8655C11.3363 14.0056 11.3731 14.1778 11.3415 14.3445C11.3162 14.617 11.3778 14.9014 11.326 15.1666C11.3025 15.2502 11.261 15.3278 11.2044 15.3943C11.1478 15.4607 11.0774 15.5145 10.9979 15.5519C10.1707 15.8726 9.33769 16.1836 8.49028 16.4448C8.2037 16.5176 7.90204 16.5097 7.61976 16.4222C7.34268 16.3457 7.08257 16.2189 6.85289 16.0482C6.67194 15.8845 6.5103 15.7013 6.37086 15.502C6.5361 15.4672 6.70624 15.4609 6.87368 15.4833C7.46738 15.5468 8.06407 15.7717 8.71473 15.3598C8.03933 14.808 6.94116 15.3241 6.38715 14.2782C7.15402 14.6748 7.7965 14.3065 8.44141 14.5796C7.69353 14.1473 6.75124 14.0612 6.54586 12.8725C7.04752 13.2963 7.59581 13.9128 8.62961 13.6935C8.04339 13.2057 7.58357 12.4436 7.2102 12.1173C4.83366 13.4499 5.70761 15.493 5.7686 15.9649C5.77207 15.9891 5.78148 16.0122 5.79612 16.0319C5.81077 16.0517 5.83022 16.0676 5.85259 16.0782C7.57444 16.9519 6.73614 19.5248 6.46805 20.2267C6.46006 20.2483 6.45731 20.2714 6.4599 20.2942C6.4625 20.317 6.47058 20.3389 6.48322 20.3582C6.49585 20.3773 6.51269 20.3932 6.53266 20.4047C6.55263 20.4162 6.57502 20.423 6.59811 20.4245C6.79107 20.4348 6.98456 20.4195 7.1734 20.3792C7.5139 20.3061 7.86712 20.3142 8.20376 20.4029C8.54041 20.4916 8.85088 20.6583 9.10884 20.8891L9.20238 20.9724C8.89963 20.7684 8.5507 20.6409 8.18606 20.6014C7.82143 20.5619 7.45244 20.6115 7.11188 20.7457C6.6838 20.902 6.28102 21.1188 5.91635 21.3894C5.89351 21.4035 5.86721 21.4114 5.84023 21.412C5.81324 21.4127 5.78653 21.4062 5.76298 21.3932C5.73943 21.3803 5.72003 21.3613 5.70652 21.3382C5.693 21.3152 5.68597 21.289 5.68629 21.2625C5.68629 20.9225 5.68629 20.6268 5.68629 20.3316C5.68111 20.0075 5.66779 19.6364 5.2346 19.6352C4.79047 19.6352 4.79818 20.02 4.79357 20.3355C4.78667 20.8415 4.78877 21.3475 4.78992 21.8534C4.78989 21.8858 4.77908 21.9172 4.75902 21.9428C4.73897 21.9685 4.71073 21.9868 4.67897 21.9951C4.6472 22.0034 4.61376 22.0011 4.58346 21.9886C4.55316 21.9761 4.52782 21.954 4.51155 21.9259C4.25784 21.4727 3.89324 20.7667 3.69074 20.3259C3.66485 20.2693 3.63299 20.2126 3.60422 20.1559C3.50987 20.0919 3.4318 20.1044 3.23792 20.2092L3.16882 20.2777C3.1205 20.3134 3.06768 20.5236 2.99634 20.4143C2.1334 19.0868 1.22837 17.8369 0.411456 16.4884C0.250702 16.215 0.145186 15.9135 0.100775 15.6006C0.00188575 14.702 0.0276995 13.7943 0.177743 12.9025C0.218505 12.4489 0.32066 12.0027 0.48112 11.5756C0.537261 11.4361 0.618527 11.3077 0.721013 11.1966C0.756106 11.1966 0.768124 11.5365 0.771576 11.6113C0.796889 12.1014 0.788316 12.583 0.829162 13.0606C0.985641 14.8941 1.23982 16.4782 2.54746 17.8533C2.81342 18.1203 3.12504 18.3391 3.46798 18.4998C3.496 18.5108 3.52678 18.5131 3.55619 18.5066C3.5856 18.5001 3.61235 18.485 3.63287 18.4632C3.6534 18.4415 3.66661 18.4141 3.67108 18.3848C3.67555 18.3554 3.67102 18.3254 3.65788 18.2987C3.2592 17.4992 2.82888 16.7122 2.50729 15.8833C2.17995 15.0386 1.96064 14.1519 1.70924 13.2771C1.70159 13.2515 1.70123 13.2244 1.70811 13.1986C1.715 13.1728 1.72885 13.1494 1.74828 13.1308C1.76771 13.1123 1.79214 13.0993 1.81851 13.0933C1.84488 13.0873 1.87229 13.0886 1.89801 13.0969C2.0844 13.1603 2.33413 13.2606 2.53088 13.3354C2.55677 13.3451 2.58487 13.3475 2.61207 13.3424C2.63926 13.3372 2.66445 13.3247 2.68482 13.3062C2.70519 13.2878 2.71978 13.264 2.72724 13.2378C2.73469 13.2115 2.73465 13.1837 2.72696 13.1575C2.47785 12.3133 1.66851 9.84357 1.66851 9.84357C1.71741 9.90023 2.19077 10.5801 2.22414 10.6407C2.60431 11.2434 2.93788 11.8733 3.22219 12.5252C3.35739 12.8697 3.46799 13.1184 3.52782 13.2487C3.55486 13.3054 3.56521 13.3728 3.51574 13.4142C2.84379 13.9751 3.38743 15.0448 3.6722 15.3779C4.06563 15.8438 4.34892 16.3899 4.50171 16.9768C4.54198 17.097 4.59447 17.2686 4.652 17.4494C4.66415 17.4818 4.68744 17.509 4.71801 17.526C4.74858 17.543 4.78435 17.5489 4.81886 17.5424C4.85336 17.5359 4.8844 17.5176 4.9065 17.4908C4.9286 17.4639 4.94042 17.4301 4.93965 17.3956C4.88902 16.6403 4.75372 15.6154 4.50059 15.3808C4.11054 15.0193 4.19286 13.7734 4.63009 13.5513C5.03682 13.3451 5.12817 13.1258 4.92279 12.7739C4.91254 12.757 4.90596 12.7381 4.90313 12.7186C4.9003 12.699 4.90147 12.6791 4.9065 12.66C4.91153 12.6409 4.92023 12.6229 4.93234 12.6072C4.94445 12.5914 4.95968 12.5782 4.97701 12.5683L6.84783 11.5139C6.87482 11.4988 6.89646 11.4759 6.90963 11.4482C6.9228 11.4206 6.92693 11.3896 6.92143 11.3595C6.91593 11.3295 6.90115 11.3019 6.87901 11.2805C6.85687 11.2591 6.82845 11.245 6.79783 11.2402C6.14901 11.1819 5.50201 11.3694 4.98852 11.7643C4.8819 11.8265 4.7623 11.8642 4.6388 11.8746C4.51529 11.885 4.39109 11.8677 4.2753 11.8241C4.15952 11.7806 4.05524 11.7118 3.97024 11.6229C3.88524 11.5341 3.82156 11.4274 3.78428 11.311C3.74474 11.2176 3.71175 11.1216 3.6854 11.0238C3.66354 10.9439 3.73717 10.8764 3.81771 10.8538C4.73818 10.6272 4.87621 10.5807 4.92223 10.3059C4.92553 10.285 4.92438 10.2637 4.91858 10.2434C4.91277 10.223 4.90266 10.2042 4.8888 10.188C4.87494 10.1719 4.85765 10.1589 4.83824 10.1499C4.81883 10.1409 4.79761 10.1362 4.77616 10.1359C4.45571 10.1818 4.12866 10.1427 3.82867 10.0226C3.65076 9.84401 3.53467 9.61454 3.4972 9.36708C3.48952 9.34043 3.48988 9.31219 3.49776 9.2856C3.50564 9.25902 3.52084 9.23517 3.54186 9.21677C3.56288 9.19837 3.58885 9.18618 3.61658 9.1816C3.64432 9.17702 3.67264 9.18023 3.69861 9.19087C4.02307 9.32685 4.11185 9.32232 4.29019 9.18748C4.30637 9.17515 4.31977 9.15975 4.3298 9.14219C4.33984 9.12464 4.34631 9.10528 4.34862 9.08525C4.35093 9.06524 4.34907 9.04496 4.34328 9.02564C4.3375 9.00631 4.32788 8.98831 4.31491 8.97273C4.27506 8.92281 4.22952 8.87741 4.17952 8.83732C3.5047 8.3189 2.468 5.4554 2.50251 4.61006C2.23151 4.83826 2.02923 5.13507 1.91711 5.46842C1.20432 5.18173 0.660493 5.09165 0.761744 4.10183L1.55109 4.5041C1.55109 4.5041 1.59247 4.20325 1.16906 3.8548C0.261243 3.10748 0.123921 2.11369 0.0951566 1.03378C0.0797394 0.858587 0.113748 0.682614 0.193754 0.525402C0.27376 0.36819 0.396514 0.235892 0.548256 0.143208C0.699999 0.0505238 0.874769 0.00108577 1.05332 0.000369333C1.23188 -0.000347108 1.40729 0.0476985 1.5598 0.139162C3.32192 0.95504 5.75026 1.77658 7.75516 1.52332L7.82061 1.50971L7.82707 1.50632L7.82229 1.50916C9.0697 1.25572 10.3395 1.12288 11.6131 1.11254H11.6238C12.8974 1.12286 14.1672 1.2557 15.4146 1.50916L15.4098 1.50632L15.4157 1.50971L15.4817 1.52332C17.4861 1.77658 19.9115 0.95674 21.6765 0.139162C21.829 0.0475408 22.0044 -0.000630321 22.183 6.22789e-06C22.3616 0.000642777 22.5368 0.0500528 22.6886 0.142758C22.8405 0.235464 22.9631 0.367824 23.0431 0.525125C23.1232 0.682426 23.1572 0.858503 23.1417 1.03378C23.113 2.11369 22.9757 3.10804 22.0673 3.8548C21.6439 4.20325 21.6858 4.5041 21.6858 4.5041L22.4751 4.10183C22.5764 5.09165 22.032 5.18173 21.3198 5.46842C21.2077 5.13507 21.0054 4.83826 20.7344 4.61006C20.7689 5.4554 19.7328 8.3189 19.0579 8.83732C19.0078 8.87749 18.9621 8.92288 18.922 8.97273C18.9087 8.98832 18.8989 9.00644 18.893 9.02593C18.8872 9.04542 18.8857 9.06588 18.8883 9.08605C18.8905 9.10597 18.8966 9.12525 18.9065 9.14276C18.9164 9.16028 18.9296 9.17567 18.9456 9.18803C19.1239 9.32288 19.2121 9.32742 19.5377 9.19144C19.5637 9.18071 19.592 9.17744 19.6197 9.182C19.6475 9.18655 19.6735 9.19875 19.6945 9.21718C19.7155 9.23562 19.7308 9.25953 19.7386 9.28616C19.7463 9.31278 19.7464 9.34104 19.7386 9.36765C19.701 9.61497 19.5851 9.84433 19.4077 10.0232C19.1075 10.1432 18.7802 10.1824 18.4596 10.1365C18.4382 10.1368 18.4172 10.1417 18.3978 10.1507C18.3784 10.1597 18.3611 10.1727 18.3472 10.1888C18.3334 10.2049 18.3233 10.2237 18.3175 10.244C18.3116 10.2643 18.3103 10.2856 18.3135 10.3065C18.3596 10.5813 18.4953 10.6272 19.4175 10.8544C19.498 10.8742 19.5717 10.9422 19.5498 11.0243C19.5234 11.1222 19.4905 11.2182 19.4509 11.3116C19.4135 11.4279 19.35 11.5345 19.265 11.6233C19.1799 11.7121 19.0756 11.7808 18.9599 11.8244C18.8441 11.868 18.7199 11.8852 18.5964 11.8749C18.4729 11.8646 18.3533 11.827 18.2467 11.7648C17.7332 11.3699 17.0862 11.1825 16.4374 11.2408C16.4068 11.2457 16.3785 11.2598 16.3565 11.2812C16.3344 11.3026 16.3198 11.3303 16.3143 11.3603C16.3089 11.3904 16.3129 11.4213 16.3261 11.4489C16.3393 11.4765 16.361 11.4994 16.3879 11.5144L18.2588 12.5688C18.276 12.5788 18.2911 12.5921 18.3031 12.6078C18.3152 12.6236 18.324 12.6415 18.329 12.6606C18.334 12.6797 18.3351 12.6996 18.3324 12.7192C18.3296 12.7387 18.3231 12.7575 18.313 12.7745C18.1076 13.1269 18.1978 13.3462 18.6051 13.5518C19.0429 13.7734 19.1229 15.0199 18.7352 15.3813C18.482 15.6159 18.3468 16.6414 18.2956 17.3961C18.2948 17.4307 18.3066 17.4644 18.3287 17.4913C18.3508 17.5182 18.3818 17.5365 18.4163 17.543C18.4509 17.5494 18.4866 17.5436 18.5172 17.5266C18.5478 17.5095 18.571 17.4824 18.5832 17.4499C18.6407 17.2692 18.6932 17.0981 18.7335 16.9774C18.8866 16.3906 19.1699 15.8445 19.563 15.3785C19.8506 15.0454 20.392 13.9757 19.72 13.4147C19.6993 13.3926 19.6866 13.3642 19.6844 13.3342C19.6821 13.3042 19.6903 13.2742 19.7074 13.2493C19.7649 13.119 19.8798 12.8703 20.0127 12.5258C20.2974 11.874 20.6312 11.2441 21.0111 10.6413C21.045 10.5784 21.5184 9.89854 21.5667 9.84414C21.5667 9.84414 20.7579 12.3139 20.5088 13.1581C20.5012 13.1842 20.5011 13.2119 20.5085 13.2381C20.516 13.2643 20.5307 13.288 20.5509 13.3064C20.5712 13.3249 20.5963 13.3374 20.6234 13.3426C20.6505 13.3478 20.6785 13.3456 20.7043 13.336C20.9011 13.2612 21.1508 13.1609 21.3372 13.0974C21.3629 13.0889 21.3905 13.0875 21.417 13.0934C21.4434 13.0993 21.4677 13.1123 21.4872 13.1309C21.5067 13.1495 21.5206 13.173 21.5274 13.1989C21.5342 13.2248 21.5338 13.252 21.526 13.2776C21.2746 14.1513 21.0558 15.038 20.7279 15.8839C20.4057 16.7123 19.9754 17.4998 19.5773 18.2992C19.5638 18.3259 19.5589 18.3561 19.5633 18.3856C19.5676 18.4151 19.5811 18.4426 19.6018 18.4645C19.6224 18.4863 19.6492 18.5014 19.6787 18.5079C19.7083 18.5143 19.7392 18.5117 19.7672 18.5004L19.7602 18.4981ZM7.46442 11.9739L7.3824 12.0153C7.41231 12.0011 7.44024 11.9881 7.46498 11.9739H7.46442ZM4.08766 1.18451C4.24337 1.22228 4.393 1.25664 4.53683 1.28761C4.38994 1.24275 4.2401 1.2083 4.08822 1.18451H4.08766ZM3.89131 1.39526C1.81392 1.23492 2.19897 2.74373 2.60167 3.64006L2.93707 4.18681C2.95689 4.20869 2.97302 4.23356 2.98483 4.26047C2.98483 4.26557 2.98928 4.27068 2.99101 4.27577C3.50877 5.47863 3.93908 8.03674 6.43125 9.01749C6.33575 8.9631 6.24076 8.90285 6.14641 8.83675C5.42773 8.23726 4.83958 7.50089 4.41716 6.67185C3.30454 4.46728 3.59615 3.08481 3.46096 2.53579C3.67612 2.60945 4.43894 2.77036 4.58851 2.82249C4.6029 2.7885 3.24981 2.21057 2.86263 2.01C3.03404 1.90471 3.22649 1.83654 3.42669 1.81C4.30459 1.72048 4.63474 1.99471 5.20313 2.0746C5.5834 2.10816 5.96651 2.07867 6.33687 1.98735L3.89131 1.39526ZM15.7517 11.9745C15.7764 11.9886 15.8046 12.0022 15.834 12.0158L15.7517 11.9745ZM18.6798 1.28818C18.8237 1.25645 18.9728 1.22189 19.1293 1.18506C18.9772 1.20859 18.8269 1.24286 18.6798 1.28761V1.28818ZM20.2251 4.2769C20.2251 4.2718 20.2298 4.26671 20.2321 4.26161C20.2438 4.23465 20.26 4.20976 20.2799 4.18795L20.6147 3.64121C21.0174 2.74487 21.4022 1.23606 19.3254 1.3964L16.8781 1.98735C17.2485 2.07866 17.6316 2.10815 18.0118 2.0746C18.5802 1.99414 18.9107 1.72048 19.7886 1.81C19.9888 1.83657 20.1809 1.90474 20.3523 2.01C19.9663 2.21057 18.6132 2.7885 18.6265 2.82249C18.7778 2.77093 19.5394 2.60945 19.754 2.53579C19.6182 3.08764 19.9099 4.46955 18.7973 6.67185C18.3749 7.50095 17.7868 8.23734 17.068 8.83675C16.9737 8.90304 16.8787 8.9631 16.7832 9.01749C19.2771 8.03504 19.7073 5.47975 20.2251 4.27633V4.2769ZM11.6027 12.1099C11.3041 12.1099 10.9812 12.1099 10.567 12.1025C10.1906 12.1081 9.81731 12.0372 9.47008 11.894C9.37501 11.8286 9.30103 11.7376 9.25716 11.6319C9.21328 11.5262 9.20127 11.4102 9.2226 11.298C9.24389 10.9892 9.65183 10.7711 9.65183 10.7711C9.63687 11.4935 10.2732 11.6872 11.6016 11.6986H11.6137C12.942 11.6867 13.5781 11.4935 13.5631 10.7711C13.5631 10.7711 13.9705 10.9892 13.9918 11.298C14.013 11.4103 14.001 11.5262 13.957 11.632C13.913 11.7377 13.8389 11.8287 13.7438 11.894C13.3966 12.0372 13.0232 12.1082 12.6468 12.1025C12.2344 12.1099 11.9114 12.1122 11.6111 12.1099L11.6055 12.0776L11.6027 12.1099ZM11.6083 19.8488C11.6475 20.8018 9.98503 20.884 8.58074 20.0556C8.50135 19.761 8.65534 19.2539 8.49253 19.1429C8.25033 18.978 7.86481 19.1956 7.62088 19.3486C7.37696 19.5015 7.21834 19.7956 6.97902 19.9792C7.08257 18.5061 8.57363 17.17 10.8662 17.0443C11.1176 17.0307 11.3724 17.0142 11.6089 17.0154C11.8453 17.0165 12.1002 17.0307 12.3516 17.0443C14.6436 17.1695 16.1355 18.5072 16.239 19.9792C15.9974 19.7956 15.842 19.5021 15.5969 19.3486C15.3518 19.195 14.9669 18.9786 14.7253 19.1429C14.5624 19.2562 14.7161 19.761 14.6373 20.0556C13.2319 20.884 11.5692 20.8018 11.6083 19.8488Z" fill="black"/>
</svg>