<svg xmlns="http://www.w3.org/2000/svg" viewBox="0 0 732 564" width="732" height="564" role="img" aria-label="Wildwood Run by Halcyon Interactive">
  <defs>
    <linearGradient id="bg" x1="0" y1="0" x2="0.35" y2="1">
      <stop offset="0" stop-color="hsl(344 58% 20%)"/>
      <stop offset="0.55" stop-color="hsl(344 58% 20%)"/>
      <stop offset="1" stop-color="hsl(344 62% 7%)"/>
    </linearGradient>
    <radialGradient id="glow" cx="0.5" cy="0.34" r="0.6">
      <stop offset="0" stop-color="hsl(344 78% 46%)" stop-opacity="0.85"/>
      <stop offset="1" stop-color="hsl(344 78% 46%)" stop-opacity="0"/>
    </radialGradient>
  </defs>
  <rect width="732" height="564" fill="url(#bg)"/>
  <rect width="732" height="564" fill="url(#glow)"/>
  <path d="M-132 -209v-2M-131 -210h-2" stroke="#fff" stroke-width="2.5" stroke-linecap="round" opacity="0.05"/><path d="M-518 -235v0M-518 -235h0" stroke="#fff" stroke-width="2.5" stroke-linecap="round" opacity="-0.05"/><path d="M-221 -327v4M-223 -325h4" stroke="#fff" stroke-width="2.5" stroke-linecap="round" opacity="0.05"/><path d="M-530 20v0M-530 20h0" stroke="#fff" stroke-width="2.5" stroke-linecap="round" opacity="-0.05"/><path d="M-222 -5v6M-225 -2h6" stroke="#fff" stroke-width="2.5" stroke-linecap="round" opacity="-0.10"/>
  <g transform="translate(181.0 6.8) scale(1.85)">
    <g transform="rotate(-18 100 110)">
      <rect x="34" y="46" width="70" height="100" rx="10" fill="#fff" opacity="0.85"/>
      <path d="M69 74 l12 14-12 14-12-14 12-14Z" fill="hsl(158 78% 44%)"/>
    </g>
    <g transform="rotate(10 100 110)">
      <rect x="82" y="40" width="70" height="100" rx="10" fill="#fff"/>
      <path d="M117 62c9 0 15 7 15 15 0 12-15 24-15 24s-15-12-15-24c0-8 6-15 15-15Z" fill="hsl(158 88% 62%)"/>
    </g>
    <ellipse cx="100" cy="168" rx="46" ry="14" fill="#FFB319" opacity="0.9"/></g>
</svg>
